<mxfile host="65bd71144e">
    <diagram id="sHh8apD-lXBSebJphRj6" name="Page-1">
        <mxGraphModel dx="2162" dy="1416" grid="1" gridSize="10" guides="1" tooltips="1" connect="1" arrows="1" fold="1" page="1" pageScale="1" pageWidth="850" pageHeight="1100" math="0" shadow="0">
            <root>
                <mxCell id="0"/>
                <mxCell id="1" parent="0"/>
                <mxCell id="292" value="" style="endArrow=none;html=1;rounded=0;exitX=0.713;exitY=0.84;exitDx=0;exitDy=0;exitPerimeter=0;entryX=0.545;entryY=0.063;entryDx=0;entryDy=0;entryPerimeter=0;" edge="1" parent="1" source="254" target="256">
                    <mxGeometry width="50" height="50" relative="1" as="geometry">
                        <mxPoint x="320.11500000000024" y="954.1859999999999" as="sourcePoint"/>
                        <mxPoint x="240.08399999999983" y="236.30949999999996" as="targetPoint"/>
                        <Array as="points">
                            <mxPoint x="320" y="930"/>
                            <mxPoint x="320" y="810"/>
                            <mxPoint x="113" y="810"/>
                            <mxPoint x="113" y="720"/>
                            <mxPoint x="110" y="120"/>
                            <mxPoint x="290" y="120"/>
                        </Array>
                    </mxGeometry>
                </mxCell>
                <mxCell id="283" value="" style="endArrow=none;html=1;rounded=0;" edge="1" parent="1" source="260">
                    <mxGeometry width="50" height="50" relative="1" as="geometry">
                        <mxPoint x="170" y="670" as="sourcePoint"/>
                        <mxPoint x="260" y="200" as="targetPoint"/>
                        <Array as="points">
                            <mxPoint x="530" y="760"/>
                            <mxPoint x="170" y="760"/>
                            <mxPoint x="170" y="670"/>
                            <mxPoint x="170" y="170"/>
                            <mxPoint x="260" y="170"/>
                        </Array>
                    </mxGeometry>
                </mxCell>
                <mxCell id="291" value="" style="endArrow=none;html=1;rounded=0;exitX=0.596;exitY=0.612;exitDx=0;exitDy=0;exitPerimeter=0;entryX=0.327;entryY=0.393;entryDx=0;entryDy=0;entryPerimeter=0;" edge="1" parent="1" source="253" target="256">
                    <mxGeometry width="50" height="50" relative="1" as="geometry">
                        <mxPoint x="198.93599999999992" y="880.5074999999999" as="sourcePoint"/>
                        <mxPoint x="233" y="220" as="targetPoint"/>
                        <Array as="points">
                            <mxPoint x="400" y="780"/>
                            <mxPoint x="143" y="780"/>
                            <mxPoint x="143" y="690"/>
                            <mxPoint x="140" y="140"/>
                            <mxPoint x="270" y="140"/>
                        </Array>
                    </mxGeometry>
                </mxCell>
                <mxCell id="132" style="edgeStyle=orthogonalEdgeStyle;rounded=0;html=1;startArrow=none;startFill=0;endArrow=none;endFill=0;fontSize=18;fontColor=#F08705;strokeColor=#23445D;strokeWidth=2;curved=1;fontStyle=0" edge="1" parent="1" source="130">
                    <mxGeometry relative="1" as="geometry">
                        <Array as="points">
                            <mxPoint x="1145" y="1230"/>
                            <mxPoint x="1030" y="1230"/>
                        </Array>
                        <mxPoint x="1030" y="870" as="targetPoint"/>
                    </mxGeometry>
                </mxCell>
                <mxCell id="167" value="RED OFICINA ALUMNOS DAM" style="text;html=1;strokeColor=none;fillColor=none;align=center;verticalAlign=middle;whiteSpace=wrap;overflow=hidden;shadow=0;fontSize=36;fontColor=#AE4132;fontStyle=0" vertex="1" parent="1">
                    <mxGeometry x="152.5" y="20" width="545" height="45" as="geometry"/>
                </mxCell>
                <mxCell id="170" style="edgeStyle=orthogonalEdgeStyle;rounded=0;jumpStyle=none;html=1;exitX=0;exitY=0.5;entryX=0;entryY=0.5;shadow=0;labelBackgroundColor=none;startArrow=none;startFill=0;endArrow=classic;endFill=1;endSize=6;jettySize=auto;orthogonalLoop=1;strokeColor=#23445D;strokeWidth=2;fillColor=#F08705;fontFamily=Helvetica;fontSize=14;fontColor=#F08705;align=left;fontStyle=0" edge="1" parent="1" source="167" target="167">
                    <mxGeometry relative="1" as="geometry"/>
                </mxCell>
                <mxCell id="253" value="PC 2" style="verticalLabelPosition=bottom;aspect=fixed;html=1;verticalAlign=top;strokeColor=none;shape=mxgraph.citrix.desktop;fillColor=#66B2FF;gradientColor=#0066CC;fontSize=14;" vertex="1" parent="1">
                    <mxGeometry x="346.99999999999994" y="850" width="89" height="98" as="geometry"/>
                </mxCell>
                <mxCell id="254" value="PC 1" style="verticalLabelPosition=bottom;aspect=fixed;html=1;verticalAlign=top;strokeColor=none;shape=mxgraph.citrix.laptop_2;fillColor=#66B2FF;gradientColor=#0066CC;fontSize=14;" vertex="1" parent="1">
                    <mxGeometry x="179.9999999999999" y="855.75" width="116" height="86.5" as="geometry"/>
                </mxCell>
                <mxCell id="256" value="SWITCH&lt;br&gt;" style="verticalLabelPosition=bottom;aspect=fixed;html=1;verticalAlign=top;strokeColor=none;shape=mxgraph.citrix.switch;fillColor=#66B2FF;gradientColor=#0066CC;fontSize=14;" vertex="1" parent="1">
                    <mxGeometry x="240" y="200" width="92" height="41.5" as="geometry"/>
                </mxCell>
                <mxCell id="260" value="PC 3" style="verticalLabelPosition=bottom;aspect=fixed;html=1;verticalAlign=top;strokeColor=none;shape=mxgraph.citrix.desktop;fillColor=#66B2FF;gradientColor=#0066CC;fontSize=14;" vertex="1" parent="1">
                    <mxGeometry x="485" y="855.75" width="89" height="98" as="geometry"/>
                </mxCell>
                <mxCell id="259" value="SERVIDOR" style="verticalLabelPosition=bottom;aspect=fixed;html=1;verticalAlign=top;strokeColor=none;shape=mxgraph.citrix.xenclient_synchronizer;fillColor=#CCCCCC;gradientColor=#000000;gradientDirection=south;fontSize=14;" vertex="1" parent="1">
                    <mxGeometry x="579.9999999999999" y="190" width="76" height="91" as="geometry"/>
                </mxCell>
                <mxCell id="262" value="PC 6" style="verticalLabelPosition=bottom;aspect=fixed;html=1;verticalAlign=top;strokeColor=none;shape=mxgraph.citrix.desktop;fillColor=#66B2FF;gradientColor=#0066CC;fontSize=14;" vertex="1" parent="1">
                    <mxGeometry x="346.99999999999994" y="630" width="89" height="98" as="geometry"/>
                </mxCell>
                <mxCell id="263" value="PC 5" style="verticalLabelPosition=bottom;aspect=fixed;html=1;verticalAlign=top;strokeColor=none;shape=mxgraph.citrix.laptop_2;fillColor=#66B2FF;gradientColor=#0066CC;fontSize=14;" vertex="1" parent="1">
                    <mxGeometry x="179.9999999999999" y="635.75" width="116" height="86.5" as="geometry"/>
                </mxCell>
                <mxCell id="264" value="PC 7" style="verticalLabelPosition=bottom;aspect=fixed;html=1;verticalAlign=top;strokeColor=none;shape=mxgraph.citrix.desktop;fillColor=#66B2FF;gradientColor=#0066CC;fontSize=14;" vertex="1" parent="1">
                    <mxGeometry x="485" y="635.75" width="89" height="98" as="geometry"/>
                </mxCell>
                <mxCell id="277" value="" style="endArrow=none;html=1;rounded=0;exitX=0.623;exitY=0.104;exitDx=0;exitDy=0;exitPerimeter=0;entryX=0.133;entryY=0.646;entryDx=0;entryDy=0;entryPerimeter=0;" edge="1" parent="1" source="263" target="256">
                    <mxGeometry width="50" height="50" relative="1" as="geometry">
                        <mxPoint x="590" y="380" as="sourcePoint"/>
                        <mxPoint x="640" y="330" as="targetPoint"/>
                    </mxGeometry>
                </mxCell>
                <mxCell id="280" value="" style="endArrow=none;html=1;rounded=0;entryX=0.339;entryY=0.9;entryDx=0;entryDy=0;entryPerimeter=0;exitX=0.356;exitY=0.138;exitDx=0;exitDy=0;exitPerimeter=0;" edge="1" parent="1" source="262" target="256">
                    <mxGeometry width="50" height="50" relative="1" as="geometry">
                        <mxPoint x="380" y="410" as="sourcePoint"/>
                        <mxPoint x="539.9959999999999" y="129.9990000000002" as="targetPoint"/>
                        <Array as="points">
                            <mxPoint x="380" y="370"/>
                            <mxPoint x="271" y="370"/>
                        </Array>
                    </mxGeometry>
                </mxCell>
                <mxCell id="281" value="" style="endArrow=none;html=1;rounded=0;exitX=0.152;exitY=0.296;exitDx=0;exitDy=0;exitPerimeter=0;" edge="1" parent="1" source="264">
                    <mxGeometry width="50" height="50" relative="1" as="geometry">
                        <mxPoint x="391.00800000000004" y="429.4359999999999" as="sourcePoint"/>
                        <mxPoint x="310" y="230" as="targetPoint"/>
                        <Array as="points">
                            <mxPoint x="500" y="340"/>
                            <mxPoint x="400" y="340"/>
                            <mxPoint x="310" y="340"/>
                        </Array>
                    </mxGeometry>
                </mxCell>
                <mxCell id="282" value="" style="endArrow=none;html=1;rounded=0;exitX=0.189;exitY=0.284;exitDx=0;exitDy=0;exitPerimeter=0;" edge="1" parent="1" source="259" target="256">
                    <mxGeometry width="50" height="50" relative="1" as="geometry">
                        <mxPoint x="880" y="211" as="sourcePoint"/>
                        <mxPoint x="749.9959999999999" y="179.9990000000002" as="targetPoint"/>
                    </mxGeometry>
                </mxCell>
            </root>
        </mxGraphModel>
    </diagram>
</mxfile>